# xmcd CD database file
#
# Track frame offsets:
#	150
#	17772
#	39968
#	58138
#	74405
#	94075
#	109137
#	122356
#	140613
#	158323
#	180717
#	200605
#
# Disc length: 2895 seconds
#
# Revision: 1
# Processed by: cddbd v1.5.2PL0 Copyright (c) Steve Scherf et al.
# Submitted via: CDex 1.81
#
DISCID=9e0b4d0c
DTITLE=Justice - Justice
DYEAR=1900
DGENRE=Blues
TTITLE0=Genesis
TTITLE1=Let There Be Light
TTITLE2=D.a.n.c.e.
TTITLE3=Newjack
TTITLE4=Phantom
TTITLE5=Phantom Part 2
TTITLE6=Valentine
TTITLE7=Tthhee Ppaarrttyy
TTITLE8=Dvno
TTITLE9=Stress
TTITLE10=Waters Of Nazareth
TTITLE11=One Minute To Midnight
EXTD=
EXTT0=
EXTT1=
EXTT2=
EXTT3=
EXTT4=
EXTT5=
EXTT6=
EXTT7=
EXTT8=
EXTT9=
EXTT10=
EXTT11=
PLAYORDER=
